<mxfile host="app.diagrams.net" modified="2023-09-21T15:50:54.256Z" agent="Mozilla/5.0 (Windows NT 10.0; Win64; x64) AppleWebKit/537.36 (KHTML, like Gecko) Chrome/116.0.0.0 Safari/537.36" version="21.8.0" etag="50tm7XnGa69zu_bqaUdn" type="github">
  <diagram name="Page-1" id="-ANnzjmGADinKB89h7hF">
    <mxGraphModel>
      <root>
        <mxCell id="0" />
        <mxCell id="1" parent="0" />
      </root>
    </mxGraphModel>
  </diagram>
</mxfile>
